<?xml version="1.0" encoding="UTF-8"?>
<!DOCTYPE svg PUBLIC "-//W3C//DTD SVG 1.1//EN" "http://www.w3.org/Graphics/SVG/1.1/DTD/svg11.dtd">
<svg xmlns="http://www.w3.org/2000/svg" version="1.1" width="48px" height="48px" style="shape-rendering:geometricPrecision; text-rendering:geometricPrecision; image-rendering:optimizeQuality; fill-rule:evenodd; clip-rule:evenodd" xmlns:xlink="http://www.w3.org/1999/xlink">
<g><path style="opacity:0.725" fill="#3bd562" d="M 19.5,7.5 C 25.6508,5.84356 29.3174,8.01023 30.5,14C 29.306,20.1491 25.6393,22.1491 19.5,20C 15.5654,15.8372 15.5654,11.6705 19.5,7.5 Z M 21.5,10.5 C 27.0159,10.4734 28.3492,12.64 25.5,17C 19.7377,17.4178 18.4044,15.2511 21.5,10.5 Z"/></g>
<g><path style="opacity:0.784" fill="#39d95d" d="M 4.5,13.5 C 12.5246,11.9116 15.1912,14.9116 12.5,22.5C 4.13694,24.8125 1.47027,21.8125 4.5,13.5 Z M 6.5,16.5 C 7.83333,16.5 9.16667,16.5 10.5,16.5C 10.5,17.8333 10.5,19.1667 10.5,20.5C 9.16667,20.5 7.83333,20.5 6.5,20.5C 6.5,19.1667 6.5,17.8333 6.5,16.5 Z"/></g>
<g><path style="opacity:0.784" fill="#39d95d" d="M 34.5,13.5 C 42.5246,11.9116 45.1912,14.9116 42.5,22.5C 34.1369,24.8125 31.4703,21.8125 34.5,13.5 Z M 36.5,16.5 C 37.8333,16.5 39.1667,16.5 40.5,16.5C 40.5,17.8333 40.5,19.1667 40.5,20.5C 39.1667,20.5 37.8333,20.5 36.5,20.5C 36.5,19.1667 36.5,17.8333 36.5,16.5 Z"/></g>
<g><path style="opacity:0.801" fill="#39d860" d="M 34.5,28.5 C 34.5,27.5 34.5,26.5 34.5,25.5C 40.184,24.2358 44.5174,25.9024 47.5,30.5C 47.5,32.5 47.5,34.5 47.5,36.5C 39.5134,37.1633 31.5134,37.83 23.5,38.5C 15.4866,37.83 7.48656,37.1633 -0.5,36.5C -0.5,34.5 -0.5,32.5 -0.5,30.5C 2.48263,25.9024 6.81596,24.2358 12.5,25.5C 12.5,26.5 12.5,27.5 12.5,28.5C 19.8333,21.8333 27.1667,21.8333 34.5,28.5 Z M 19.5,26.5 C 26.6,25.0469 31.2667,27.7135 33.5,34.5C 32.9747,35.1924 32.3081,35.6924 31.5,36C 25.7805,36.7876 20.1138,36.6209 14.5,35.5C 14.2656,31.6479 15.9322,28.6479 19.5,26.5 Z M 12.5,28.5 C 11.3328,33.6721 7.99947,35.6721 2.5,34.5C 3.54772,29.0632 6.88105,27.0632 12.5,28.5 Z M 34.5,28.5 C 40.1189,27.0632 43.4523,29.0632 44.5,34.5C 39.0005,35.6721 35.6672,33.6721 34.5,28.5 Z"/></g>
</svg>
